<svg version="1.2" xmlns="http://www.w3.org/2000/svg" viewBox="0 0 612 612" width="612" height="612"><style>.a{fill:#fff}.b{mix-blend-mode:color;fill:#fff}</style><path class="a" d="m382.2 150.9c9.7 10.9 16.5 24.4 20.3 40 3.7 14.8 4.5 31.3 2.5 49-0.8 6.5-1.9 13.9-3.5 21.8 12.5 12.1 28.9 19.8 50.3 19.8 59.2 0 80.5-59.3 86.1-108 6.9-60-21.5-105.2-86.1-105.2-50.7 0-79.1 27.9-85.6 68.8 5.9 4 11.2 8.6 16 13.8z"/><path class="a" d="m612 422.7c-0.7-18.9-2.9-37.9-6.2-56.5-4-22.5-9.1-55.6-28.7-70.3-11.4-8.5-26.2-11.2-39.2-16.4-6.3-2.5-12-4.9-17.3-7.7-18 19.7-41.5 30-68.8 30-21.3 0-40.2-6.3-56-18.3-3.7 11.2-8.5 22.6-15.1 32.9 5.8 3.5 12 6.2 19.5 9.2 3.3 1.3 7 2.5 10.8 3.8 10.5 3.4 22.4 7.3 33 15.2 25.4 18.9 31.6 54.4 36.2 80.2l0.4 2.8c2.4 13.3 4.1 26.3 5.2 39 20.3-2.1 40.4-5.6 60.1-9.8 15.9-3.3 31.8-7.5 47.1-13 12.2-4.4 19.5-6.5 19-21.1z"/><path class="a" d="m160.2 281.5c21.4 0 37.8-7.7 50.3-19.8-1.6-7.9-2.7-15.3-3.5-21.8-2-17.7-1.2-34.2 2.4-49 3.9-15.6 10.7-29.1 20.4-40 4.7-5.2 10.1-9.8 16-13.8-6.5-40.9-34.9-68.8-85.6-68.8-64.6 0-93 45.2-86.1 105.2 5.6 48.7 26.9 108 86.1 108z"/><path class="a" d="m168 344.6c10.6-7.9 22.5-11.8 33-15.2 3.8-1.3 7.5-2.5 10.8-3.8 7.5-2.9 13.7-5.7 19.5-9.2-6.6-10.3-11.4-21.7-15.1-32.9-15.8 12-34.7 18.3-56 18.3-27.3 0-50.8-10.3-68.8-30-5.3 2.8-11 5.2-17.3 7.7-13 5.2-27.8 7.9-39.2 16.4-19.6 14.7-24.7 47.8-28.7 70.3-3.3 18.6-5.5 37.6-6.2 56.5-0.5 14.6 6.7 16.7 19 21.1 15.3 5.5 31.2 9.7 47.1 13 19.7 4.2 39.8 7.7 60.1 9.8 1.1-12.7 2.8-25.7 5.1-39l0.5-2.8c4.6-25.8 10.8-61.3 36.2-80.2z"/><path class="a" d="m470.4 429.4l-0.5-2.8c-4.3-24.2-10.1-57.3-32.2-73.8-9.4-7-19.9-10.4-30.1-13.8-4-1.3-7.8-2.5-11.4-3.9-5.3-2.1-10.1-4.1-14.5-6.4-18.7 24.9-44.6 38.1-75.4 38.1-30.8 0-56.7-13.2-75.4-38.1-4.4 2.3-9.2 4.3-14.4 6.4-3.6 1.4-7.4 2.6-11.4 3.9-10.3 3.4-20.8 6.8-30.1 13.8-22.1 16.5-28 49.6-32.2 73.8l-0.5 2.8c-3.6 20.1-5.7 39.6-6.3 57.9-0.8 21.5 12.6 26.3 24.4 30.6l1.3 0.4c14.1 5.1 30 9.5 48.4 13.4 37.7 8 68.2 11.8 96.1 12h0.1 0.1c27.9-0.2 58.5-4 96.1-12 18.5-3.9 34.3-8.3 48.5-13.4l1.2-0.4c11.8-4.3 25.2-9.1 24.5-30.6-0.7-18.4-2.8-37.9-6.3-57.9z"/><path class="b" d="m221 243c5.6 48.7 26.9 108 86.1 108 59.2 0 80.5-59.3 86.1-108 6.9-60-21.5-105.2-86.1-105.2-64.6 0-93 45.2-86.1 105.2z"/></svg>