<svg version="1.1" id="Layer_1" xmlns="http://www.w3.org/2000/svg" xmlns:xlink="http://www.w3.org/1999/xlink" x="0px" y="0px"
	 width="100%" viewBox="0 0 500 500" enable-background="new 0 0 500 500" xml:space="preserve">
<path fill="#FFFFFF" opacity="1.000000" stroke="none" 
	d="
M245.000000,501.000000 
	C164.666687,501.000000 84.833328,500.971893 5.000206,501.096069 
	C1.575961,501.101410 0.903036,500.423828 0.905301,497.000000 
	C1.013779,333.000092 1.013772,169.000122 0.905334,5.000239 
	C0.903070,1.576922 1.575817,0.903022 4.999884,0.905287 
	C168.999771,1.013774 332.999725,1.013761 496.999634,0.905353 
	C500.422668,0.903090 501.096985,1.575443 501.094727,4.999765 
	C500.986206,168.999649 500.986237,332.999603 501.094604,496.999512 
	C501.096893,500.422272 500.425446,501.101013 497.000275,501.096008 
	C413.166992,500.973206 329.333466,501.000000 245.000000,501.000000 
z"/>
<path fill="#FEBD5A" opacity="1.000000" stroke="none" 
	d="
M286.998657,185.457016 
	C294.042389,185.242996 300.704926,185.133087 307.358917,185.322983 
	C314.038879,185.513641 317.614319,188.889603 317.747284,195.567307 
	C318.330658,224.865082 318.783691,254.165741 319.171417,283.466858 
	C319.248474,289.290741 316.197540,292.001007 309.959198,292.005127 
	C273.984985,292.028870 238.010757,292.003326 201.578339,291.939087 
	C196.310349,290.973633 194.697556,287.599762 194.544235,283.202240 
	C194.323792,276.879761 194.458878,270.553070 194.457321,264.228363 
	C194.451752,241.757172 194.392075,219.285797 194.488693,196.814865 
	C194.520233,189.476471 196.016983,187.362228 202.291855,185.491058 
	C205.161911,185.320923 207.559586,185.208496 210.404510,185.111145 
	C213.169937,184.437988 215.643600,184.817230 218.366135,183.994263 
	C221.108490,183.561554 223.431427,183.362747 226.020264,184.654221 
	C228.347549,189.456589 227.337265,194.176041 227.183746,199.224670 
	C226.771530,200.980560 225.683212,201.773941 224.808563,202.757935 
	C221.731461,206.219788 221.746185,209.348221 224.748062,212.320724 
	C227.643860,215.188202 231.130844,215.284241 233.983963,212.575119 
	C236.884583,209.820892 236.999741,206.257690 234.254883,202.858002 
	C233.637375,202.093170 232.780121,201.530685 232.155350,200.267380 
	C231.291595,195.568924 231.304733,191.236160 232.178345,186.476074 
	C232.656403,185.507095 233.057388,185.041489 233.950943,184.415253 
	C243.930405,182.746994 253.543442,183.603958 263.586609,183.729904 
	C266.544800,184.393478 269.066315,184.821289 272.063416,184.001678 
	C274.884247,183.553391 277.268921,183.334824 279.948669,184.587463 
	C282.406860,189.398590 281.291321,194.166687 281.217194,199.254578 
	C280.840790,200.989624 279.969727,201.997986 279.214996,203.094406 
	C276.544037,206.974487 276.862854,209.996094 280.142548,212.682175 
	C282.895203,214.936646 286.323639,214.892349 288.723633,212.571274 
	C291.222137,210.154922 291.289307,205.715897 288.879059,202.539444 
	C288.077271,201.482742 286.872192,200.780090 286.111908,199.179108 
	C285.483459,194.398834 284.719696,189.979431 286.998657,185.457016 
z"/>
<path fill="#161515" opacity="1.000000" stroke="none" 
	d="
M279.723694,201.304565 
	C279.969116,195.967636 280.014648,191.064087 279.941681,185.726257 
	C277.970154,182.204254 278.739471,178.788452 278.724487,175.514191 
	C278.680634,165.936905 274.440948,159.017258 265.829193,154.357407 
	C271.874420,163.861389 275.012482,173.689301 272.125854,185.018906 
	C269.732666,185.306259 267.581238,185.316666 265.075256,185.236740 
	C262.828674,180.431946 263.792389,175.328735 262.671082,170.470352 
	C261.331879,164.667770 258.423279,160.177841 253.661316,156.665848 
	C250.152298,154.077896 246.925522,154.333038 243.693756,156.944641 
	C237.993011,161.551437 234.562469,167.368347 234.315445,174.839417 
	C234.222336,177.655319 234.450562,180.479614 234.005402,183.662354 
	C233.796402,184.263733 233.679611,184.491760 233.411057,185.072876 
	C233.270645,190.207993 233.281967,194.990021 233.370514,200.212158 
	C234.541046,202.994507 234.722610,205.430481 234.180511,207.935349 
	C233.709274,210.112778 232.418152,211.496231 230.166016,211.737350 
	C227.776932,211.993134 226.482346,210.529495 225.747223,208.511078 
	C224.889114,206.154922 224.189087,203.752289 225.742691,200.864975 
	C226.024857,195.667374 226.095520,190.916183 226.023666,185.739639 
	C223.154678,176.546402 225.153275,168.276855 228.521149,160.146240 
	C229.131775,158.672104 230.530746,157.569534 230.655518,155.280228 
	C223.409561,159.707764 219.850403,165.796783 219.322464,173.831879 
	C219.085098,177.444397 220.100998,181.167633 218.199051,184.957794 
	C215.828232,185.285782 213.680862,185.315933 211.192627,185.236160 
	C211.228821,179.492310 210.167175,173.771027 211.457748,168.214340 
	C214.992508,152.994980 227.062057,144.233917 244.242737,144.778519 
	C249.242340,144.937012 254.188202,144.229309 259.172516,144.622971 
	C274.532837,145.836151 286.329742,157.908325 287.010742,173.289032 
	C287.172485,176.942062 287.097229,180.605560 287.257263,184.742859 
	C287.298920,189.847519 287.214294,194.473602 287.207123,199.561279 
	C288.678467,202.120102 288.610535,204.451767 288.213013,206.766052 
	C287.704651,209.725494 286.023560,211.816513 282.851105,211.502533 
	C279.870239,211.207535 278.977875,208.746872 278.688873,206.087585 
	C278.522064,204.552429 278.885284,203.118683 279.723694,201.304565 
z"/>
<path fill="#04C064" opacity="1.000000" stroke="none" 
	d="
M202.314590,185.447449 
	C198.002716,187.189178 195.911102,190.493317 195.928116,195.671112 
	C196.022491,224.376251 195.970261,253.082031 195.891296,281.787384 
	C195.880020,285.883698 196.678802,289.362793 200.911896,291.602722 
	C197.795593,291.934631 194.469742,292.069183 191.146729,292.018402 
	C185.104828,291.926056 182.080276,288.886841 182.018204,282.691925 
	C181.929871,273.877258 181.989304,265.061066 181.995453,256.245514 
	C182.009216,236.452148 182.023758,216.658798 182.048813,196.865433 
	C182.059662,188.296814 184.782410,185.555130 193.382248,185.451874 
	C196.209366,185.417923 199.037369,185.456284 202.314590,185.447449 
z"/>
<path fill="#0D0D0D" opacity="1.000000" stroke="none" 
	d="
M244.279373,329.059662 
	C244.279129,331.873962 244.250580,334.206482 244.286880,336.537933 
	C244.325668,339.028839 244.884613,341.265594 240.725388,341.203461 
	C236.914429,341.146454 236.905991,339.456757 236.977951,336.708954 
	C237.095612,332.215546 237.108688,327.708984 236.890961,323.221313 
	C236.768646,320.700226 236.190704,317.984161 232.817535,317.964386 
	C229.659271,317.945892 228.399612,320.469788 228.199432,322.949402 
	C227.798431,327.916718 227.769470,332.936554 227.959061,337.920532 
	C228.070221,340.843109 226.750931,341.170990 224.400070,341.066711 
	C222.181885,340.968353 220.185425,341.428619 220.327972,337.890442 
	C220.602646,331.072327 220.283875,324.231720 220.470612,317.407532 
	C220.512360,315.882782 218.544006,313.021637 222.238190,312.913391 
	C224.687149,312.841644 228.012085,311.590698 227.575409,317.109314 
	C230.730804,313.673370 233.584427,311.595459 237.580673,312.385223 
	C240.423706,312.947021 242.417374,314.491577 243.423691,317.253845 
	C245.268860,317.094543 245.480362,315.237488 246.571152,314.312988 
	C250.993896,310.564423 258.092346,311.938568 259.828064,317.332916 
	C262.169098,324.608521 260.807373,332.221954 260.749786,339.673218 
	C260.730713,342.140656 257.800354,340.676880 256.214600,340.993103 
	C254.364960,341.361908 253.537262,340.567291 253.590042,338.553589 
	C253.703476,334.225769 253.838135,329.877625 253.541641,325.566864 
	C253.329254,322.479156 254.041809,318.006866 249.177872,318.069122 
	C244.691116,318.126495 244.889633,322.387054 244.327026,325.583954 
	C244.156235,326.554504 244.286957,327.578094 244.279373,329.059662 
z"/>
<path fill="#060606" opacity="1.000000" stroke="none" 
	d="
M284.597473,327.119629 
	C284.525726,325.479645 284.532257,324.307251 284.366638,323.159668 
	C284.004211,320.647827 283.675323,317.911682 280.260132,317.947052 
	C277.105072,317.979736 276.183838,320.447174 275.680267,322.989471 
	C274.701172,327.932129 275.158020,332.954590 275.323059,337.918610 
	C275.439178,341.410919 273.512360,340.945343 271.305450,341.063385 
	C268.846222,341.194885 267.811554,340.641388 267.900574,337.852325 
	C268.118103,331.036163 267.867798,324.205811 268.036072,317.386841 
	C268.077209,315.719543 266.292725,312.837128 270.385712,312.818634 
	C274.275696,312.801056 274.565002,312.789185 275.371277,316.678223 
	C282.049011,310.349609 286.686554,310.631989 291.495270,317.764130 
	C294.022095,313.443115 297.503113,311.132141 302.603210,312.781464 
	C307.501068,314.365417 308.167023,318.494843 308.245331,322.812775 
	C308.335846,327.803772 308.072021,332.810181 308.372406,337.785156 
	C308.572021,341.091949 306.889984,341.076813 304.485657,341.069244 
	C302.178497,341.061981 300.808807,340.882172 300.972137,337.913605 
	C301.236786,333.103485 301.114655,328.262390 300.943787,323.441925 
	C300.854370,320.917908 300.403137,318.167633 297.100800,317.964630 
	C293.647522,317.752319 292.389435,320.471130 292.176971,323.146576 
	C291.782806,328.110443 291.749542,333.128662 291.969604,338.106384 
	C292.111267,341.311493 290.312500,341.017700 288.233673,341.042419 
	C286.100769,341.067780 284.307648,341.212952 284.539429,338.078430 
	C284.796417,334.602692 284.597870,331.093231 284.597473,327.119629 
z"/>
<path fill="#0D0D0D" opacity="1.000000" stroke="none" 
	d="
M101.629745,312.264069 
	C108.232307,313.513092 110.168823,318.220032 110.707657,323.590271 
	C111.313110,329.624512 111.279785,335.896362 105.604965,339.823456 
	C101.180550,342.885254 96.538002,341.761902 91.616318,337.918335 
	C91.616318,341.400848 91.619133,344.116821 91.615524,346.832764 
	C91.611931,349.532135 92.525864,352.290039 87.729454,352.238953 
	C83.170036,352.190369 84.141144,349.570953 84.134056,347.090546 
	C84.105118,336.959839 84.065590,326.828674 84.159256,316.698822 
	C84.170769,315.454834 82.967438,313.364319 85.201637,313.010712 
	C87.064217,312.715942 90.109474,311.893097 90.781212,313.468109 
	C92.200371,316.795563 93.235596,314.714386 94.592453,313.858032 
	C96.618965,312.579071 98.846466,312.056274 101.629745,312.264069 
z"/>
<path fill="#0A0A0A" opacity="1.000000" stroke="none" 
	d="
M175.129669,314.780396 
	C171.211853,310.082367 166.920349,308.719177 162.200180,310.521149 
	C157.473053,312.325745 156.050247,316.235138 155.855362,320.853241 
	C155.685013,324.890228 155.768417,328.901245 158.585892,332.190369 
	C162.627075,336.908020 171.001022,336.649933 174.555969,331.114532 
	C176.985626,327.331360 179.275177,329.487396 181.167587,330.538574 
	C184.224960,332.236847 181.202408,334.023712 180.310684,335.203003 
	C175.466599,341.609100 168.586441,342.252991 161.394485,340.974365 
	C154.724716,339.788544 150.352142,335.703827 148.813690,329.051971 
	C147.057175,321.457214 147.110062,313.918762 153.243729,308.167969 
	C159.052017,302.722260 166.257278,302.976257 173.431717,304.979492 
	C175.126785,305.452820 176.778503,306.489563 178.144974,307.632141 
	C180.015228,309.195923 182.500168,311.368408 181.542419,313.637085 
	C180.846207,315.286224 177.706207,315.803802 175.129669,314.780396 
z"/>
<path fill="#0A0A0A" opacity="1.000000" stroke="none" 
	d="
M186.524078,329.432343 
	C185.984756,316.896973 192.904846,310.522644 204.170212,312.710541 
	C210.672867,313.973450 214.037903,317.988861 214.701843,325.277740 
	C215.348526,332.377014 212.305420,338.081848 206.647980,340.376038 
	C197.333069,344.153412 188.782257,339.658539 186.524078,329.432343 
z"/>
<path fill="#0A0A0A" opacity="1.000000" stroke="none" 
	d="
M417.700500,318.481567 
	C421.026672,328.109131 420.931641,328.252533 411.628906,328.252350 
	C410.132690,328.252319 408.606781,328.066620 407.147858,328.299835 
	C405.360840,328.585510 402.790100,327.027252 401.932983,329.493744 
	C401.215576,331.558105 402.104797,333.832397 403.901031,335.322418 
	C405.908386,336.987518 408.805756,337.409851 410.295776,335.621216 
	C412.987976,332.389618 415.731842,333.626160 418.790161,334.097260 
	C415.657776,340.396637 410.838135,342.547638 403.480438,341.100372 
	C397.904083,340.003510 394.500488,335.768280 393.977661,329.275696 
	C393.302948,320.897125 396.107819,315.124268 401.824646,313.125427 
	C407.962097,310.979553 413.609894,312.788849 417.700500,318.481567 
z"/>
<path fill="#0A0A0A" opacity="1.000000" stroke="none" 
	d="
M323.022003,312.875732 
	C333.145538,311.229004 339.024506,315.946411 339.453003,325.435211 
	C339.554596,327.684753 338.947845,328.375580 336.756927,328.289154 
	C333.272217,328.151703 329.768250,328.098877 326.292572,328.322876 
	C324.757294,328.421844 322.200043,326.950165 321.847046,329.811584 
	C321.532471,332.361298 322.397095,334.765869 325.023865,336.030762 
	C326.817108,336.894287 329.121643,337.070801 330.188995,335.716675 
	C332.719238,332.506561 335.555817,333.414429 338.621338,334.088959 
	C336.027039,340.066132 331.793182,342.205017 324.626404,341.255646 
	C318.620026,340.459930 314.987000,336.735626 314.069153,330.433167 
	C312.767059,321.492401 315.463531,315.988708 323.022003,312.875732 
z"/>
<path fill="#040404" opacity="1.000000" stroke="none" 
	d="
M116.605362,320.124207 
	C117.529884,317.481964 114.466095,313.955597 118.467804,312.989410 
	C121.743492,312.198517 124.606476,312.515625 124.024971,317.484589 
	C123.544693,321.588623 123.866051,325.799652 123.999321,329.957886 
	C124.096024,332.975189 124.964859,335.741577 128.619568,335.943756 
	C132.073502,336.134827 133.698853,333.784943 134.365829,330.800720 
	C135.429993,326.039459 134.840759,321.177795 134.768433,316.372559 
	C134.725220,313.501923 135.620270,312.756042 138.400192,312.791809 
	C141.018524,312.825531 142.247986,313.174316 142.135971,316.248657 
	C141.893661,322.899200 142.225342,329.571228 141.959641,336.219971 
	C141.897079,337.785461 144.155716,340.932800 139.958954,341.013733 
	C137.152100,341.067871 133.957382,341.751312 135.190079,336.243103 
	C132.725418,338.502106 131.341293,340.360413 129.006882,341.039001 
	C122.643013,342.888885 117.441437,339.656433 116.860741,333.076416 
	C116.495964,328.942841 116.671959,324.761475 116.605362,320.124207 
z"/>
<path fill="#0D0D0D" opacity="1.000000" stroke="none" 
	d="
M383.661377,331.341583 
	C385.995697,331.742340 389.157776,330.346344 389.658844,332.713196 
	C390.145142,335.010437 387.992981,337.250061 385.966095,338.846771 
	C378.366608,344.833374 366.882172,340.892883 364.586060,331.518250 
	C361.530762,319.044006 370.146057,309.670837 381.720154,312.903351 
	C386.084656,314.122345 388.848877,316.848297 389.685699,321.666138 
	C386.201324,321.821503 383.027283,323.179749 380.732422,318.815643 
	C379.248688,315.994019 374.454742,317.046906 373.041260,320.304108 
	C371.184326,324.583191 371.363312,329.050201 372.992889,333.410370 
	C373.700684,335.304169 375.225250,336.205811 377.219177,336.390442 
	C380.888611,336.730286 381.804413,333.746765 383.661377,331.341583 
z"/>
<path fill="#040404" opacity="1.000000" stroke="none" 
	d="
M352.220062,330.998718 
	C352.220093,333.141846 352.225189,334.805756 352.218994,336.469574 
	C352.210083,338.855896 352.997864,341.189941 348.751068,341.194427 
	C344.469604,341.198975 344.925385,339.009674 344.954102,336.299957 
	C345.021088,329.978088 344.873505,323.652496 345.031067,317.333893 
	C345.073273,315.641266 343.355896,312.648346 347.447510,312.853027 
	C350.109680,312.986206 353.268707,312.168579 351.509888,317.994873 
	C353.529816,315.632385 354.397461,314.223389 355.625702,313.287750 
	C356.950745,312.278351 358.797577,311.666565 360.321045,312.577454 
	C361.819153,313.473236 361.041138,315.317596 361.108429,316.752380 
	C361.235016,319.451416 359.178619,318.272034 357.934631,318.408478 
	C354.236176,318.814117 352.940643,321.354828 352.523712,324.552002 
	C352.266968,326.520874 352.311066,328.528992 352.220062,330.998718 
z"/>
<path fill="#1156B2" opacity="1.000000" stroke="none" 
	d="
M226.598557,369.630524 
	C226.141098,372.278168 225.937393,374.586884 225.861923,376.899780 
	C225.816101,378.304291 225.355118,379.030273 223.822495,379.026398 
	C222.131165,379.022217 222.017609,377.981537 222.031906,376.733246 
	C222.045242,375.569794 222.030136,374.406006 222.029541,373.242371 
	C222.025528,365.475037 222.025650,365.476624 229.768723,365.715057 
	C232.281677,365.792450 233.930450,366.943146 234.093658,369.550934 
	C234.249130,372.035583 234.176453,374.534515 234.204376,377.027161 
	C234.216278,378.090515 234.086411,378.961639 232.675858,379.030212 
	C231.164917,379.103699 230.580902,378.475220 230.612900,377.006683 
	C230.652679,375.179688 230.699127,373.341797 230.550156,371.524414 
	C230.363510,369.247833 229.288986,368.127441 226.598557,369.630524 
z"/>
<path fill="#1156B2" opacity="1.000000" stroke="none" 
	d="
M250.451111,376.152130 
	C250.304474,381.600739 246.289505,379.109100 244.103973,378.738220 
	C240.373398,378.105133 239.606796,374.807587 239.931335,371.363831 
	C240.232788,368.165222 241.810043,366.126282 245.161301,365.777771 
	C248.332260,365.447937 250.744873,366.471008 251.721634,369.724579 
	C252.408920,372.013885 252.099899,373.447906 249.059372,373.478699 
	C247.484268,373.494629 244.125977,372.014526 244.465866,374.887970 
	C244.770859,377.466614 248.029785,376.044342 250.451111,376.152130 
z"/>
<path fill="#1C5EB6" opacity="1.000000" stroke="none" 
	d="
M183.191437,369.260559 
	C183.176025,366.970795 183.294662,365.415985 185.920639,366.164215 
	C189.095108,367.068726 193.928223,363.190704 195.264740,369.177887 
	C195.832016,371.719086 195.520081,374.458771 195.586029,377.108795 
	C195.623718,378.623932 194.750763,379.087616 193.364822,379.038483 
	C191.924301,378.987366 191.906113,377.990540 191.889664,376.979523 
	C191.859955,375.153442 191.884232,373.326111 191.829895,371.500977 
	C191.786026,370.027008 191.240021,368.812988 189.539688,368.867279 
	C187.949249,368.918121 187.217514,370.042847 187.127106,371.518921 
	C187.025742,373.173920 187.035843,374.837036 187.036697,376.496643 
	C187.037415,377.897064 187.059586,379.185913 185.018188,379.044617 
	C183.409531,378.933258 183.191086,377.962036 183.196167,376.692291 
	C183.205475,374.367584 183.193573,372.042816 183.191437,369.260559 
z"/>
<path fill="#1156B2" opacity="1.000000" stroke="none" 
	d="
M301.419922,379.067352 
	C297.966827,379.447266 295.334686,378.624451 294.178864,375.519318 
	C293.230682,372.971985 293.178101,370.277954 294.905914,367.917114 
	C296.618835,365.576660 299.111938,365.422729 301.644867,365.933228 
	C304.424164,366.493347 305.846558,368.419922 306.126526,371.180756 
	C306.492065,374.785431 305.773712,377.825317 301.419922,379.067352 
z"/>
<path fill="#1156B2" opacity="1.000000" stroke="none" 
	d="
M165.868271,375.947845 
	C165.528671,375.115906 165.259918,374.664825 165.196335,374.186432 
	C164.723740,370.631409 165.206497,367.301636 169.106201,366.084991 
	C172.321320,365.081879 175.479202,365.579834 177.070160,369.162109 
	C178.564560,372.527069 178.363373,375.951080 175.166168,378.046692 
	C171.915253,380.177551 168.525513,379.812073 165.868271,375.947845 
z"/>
<path fill="#1156B2" opacity="1.000000" stroke="none" 
	d="
M329.637390,365.884583 
	C332.420837,365.562744 334.657684,365.747772 336.199829,368.026947 
	C337.106140,369.366394 337.416901,370.908630 336.987915,372.317871 
	C336.467712,374.026886 334.711945,373.069061 333.520935,373.381195 
	C332.104126,373.752502 329.556946,372.259094 329.469788,374.591675 
	C329.393524,376.633392 331.790802,376.317963 333.458832,376.280579 
	C334.448944,376.258392 336.034637,375.138550 336.265076,377.029724 
	C336.485931,378.842499 334.862701,378.974854 333.504822,379.109619 
	C329.921448,379.465118 326.569183,378.952606 325.440796,374.980194 
	C324.357056,371.164978 324.917297,367.646271 329.637390,365.884583 
z"/>
<path fill="#1C5EB6" opacity="1.000000" stroke="none" 
	d="
M265.892639,369.089844 
	C267.111115,364.972504 270.143707,365.676056 272.908844,365.855988 
	C274.029999,365.928986 275.456573,365.978607 275.142151,367.730011 
	C274.827545,369.482635 273.534393,368.961273 272.419342,368.689484 
	C271.603485,368.490662 270.792603,368.256714 270.146027,369.210022 
	C270.790436,371.198517 273.126160,370.929047 274.379456,372.153778 
	C275.515930,373.264404 276.231750,374.550659 275.698914,376.159149 
	C274.885559,378.614166 272.882294,379.294189 270.574677,379.185089 
	C269.010315,379.111145 267.085571,379.760773 266.095032,377.975677 
	C265.636505,377.149323 265.696381,375.931183 267.274750,376.016510 
	C268.722504,376.094727 270.183197,376.906433 271.790924,375.774231 
	C270.917542,372.673248 265.627441,373.542694 265.892639,369.089844 
z"/>
<path fill="#1156B2" opacity="1.000000" stroke="none" 
	d="
M288.876282,378.290955 
	C282.690155,379.632355 281.686584,379.037231 281.876190,373.290710 
	C281.974213,370.319916 278.711182,367.042389 282.534729,364.269531 
	C283.161438,363.815033 284.158020,362.700928 284.343018,363.152771 
	C285.243408,365.352417 287.949097,365.452179 288.858582,367.240143 
	C289.404633,368.313568 287.777771,368.377869 286.974701,368.842804 
	C284.385437,370.341949 284.653870,374.946716 287.456726,376.038116 
	C288.569305,376.471313 289.152161,376.735901 288.876282,378.290955 
z"/>
<path fill="#1C5EB6" opacity="1.000000" stroke="none" 
	d="
M205.587036,367.202881 
	C205.584457,370.645538 205.558029,373.625549 205.589569,376.605011 
	C205.605774,378.135254 205.266815,379.148621 203.393982,379.054016 
	C201.546616,378.960754 201.860504,377.682404 201.854218,376.582214 
	C201.830643,372.443756 201.777420,368.303375 201.883255,364.167511 
	C201.915543,362.905914 200.968079,360.918182 203.476517,360.778503 
	C206.280319,360.622437 205.456345,362.762726 205.575485,364.257812 
	C205.641022,365.080322 205.587219,365.912292 205.587036,367.202881 
z"/>
<path fill="#1C5EB6" opacity="1.000000" stroke="none" 
	d="
M215.873779,376.652802 
	C215.914352,378.648438 215.034500,379.070099 213.661591,379.035675 
	C212.335617,379.002411 211.875778,378.220337 212.037125,377.108337 
	C212.583115,373.345337 210.589874,369.285583 213.265579,365.790131 
	C214.558578,364.101013 212.072433,364.187500 212.148499,363.144562 
	C212.193100,362.533142 212.191315,361.778198 212.538513,361.360687 
	C213.109085,360.674500 214.029526,360.725220 214.840591,361.040405 
	C215.507874,361.299683 216.039505,361.883484 215.781952,362.566803 
	C214.059784,367.135468 216.964157,371.650757 215.873779,376.652802 
z"/>
<path fill="#1156B2" opacity="1.000000" stroke="none" 
	d="
M315.852905,375.033813 
	C315.643280,376.937531 316.601929,379.107300 313.753479,378.999084 
	C311.227631,378.903076 312.220490,376.943634 312.055054,375.659454 
	C311.928406,374.676605 312.029449,373.664398 312.029358,372.665253 
	C312.028839,365.639648 312.353638,365.323761 319.000732,365.816284 
	C319.690735,365.867432 320.409607,365.986908 320.529144,366.749390 
	C320.691742,367.786438 320.496124,368.861328 319.213196,369.014526 
	C315.638092,369.441498 315.822021,372.048248 315.852905,375.033813 
z"/>
<path fill="#FFFEFD" opacity="1.000000" stroke="none" 
	d="
M265.734467,278.197235 
	C260.835907,269.853302 256.083221,261.837708 251.508987,253.721512 
	C249.001984,249.273224 250.596619,248.084381 255.215591,246.040054 
	C259.627014,244.087570 264.553802,242.217377 267.839355,238.180695 
	C268.586823,237.262329 267.833191,236.298233 267.347473,235.435699 
	C266.041077,233.115799 264.801056,230.754929 263.406891,228.488953 
	C261.814056,225.900101 262.006927,223.787598 264.738373,222.173248 
	C267.495789,220.543533 269.141449,222.088989 270.394409,224.308716 
	C274.402130,231.408737 278.344696,238.545517 282.324127,245.661545 
	C282.800110,246.512680 283.348297,247.323425 284.982941,248.119476 
	C284.982941,245.766663 285.013489,243.413376 284.975555,241.061172 
	C284.922699,237.781662 285.380066,234.957199 289.632111,234.938370 
	C293.927063,234.919327 294.349182,237.692596 294.185059,241.022003 
	C293.775421,249.331604 293.416626,257.643738 293.039581,265.954926 
	C292.994324,266.952057 292.624573,268.092957 292.977295,268.924591 
	C295.891052,275.794952 291.647247,278.580414 286.365784,280.847290 
	C285.756500,281.108795 285.188324,281.467468 284.605560,281.789154 
	C274.302124,287.476654 274.302277,287.476929 265.734467,278.197235 
z"/>
<path fill="#FDFDFD" opacity="1.000000" stroke="none" 
	d="
M234.061096,185.203888 
	C233.281784,180.138412 232.786209,174.988007 233.788010,169.855682 
	C234.373260,166.857391 235.368011,163.964981 237.244522,161.659103 
	C246.146118,150.720779 251.356445,149.465317 260.803772,162.012878 
	C265.706604,168.524597 264.857880,176.539001 264.757385,184.669800 
	C254.731903,185.137680 244.743118,185.128967 234.061096,185.203888 
z"/>
<path fill="#F7F7F7" opacity="1.000000" stroke="none" 
	d="
M272.328430,185.243484 
	C271.704437,180.669678 271.694183,176.029221 271.306305,171.420578 
	C270.686005,164.050385 267.408203,157.854767 262.076447,152.558975 
	C270.832611,153.033890 279.131958,162.234085 279.954681,172.417679 
	C280.273804,176.367615 280.074432,180.359436 279.967224,184.812088 
	C277.473053,185.258362 275.122894,185.224747 272.328430,185.243484 
z"/>
<path fill="#F7F7F7" opacity="1.000000" stroke="none" 
	d="
M218.417694,185.216522 
	C217.964462,180.930069 217.753250,176.593826 217.983566,172.281158 
	C218.473648,163.104370 226.308655,153.908218 234.850998,153.301453 
	C226.279449,162.471802 225.788483,173.309326 226.057037,184.845444 
	C223.540695,185.268661 221.200256,185.223038 218.417694,185.216522 
z"/>
<path fill="#0DBC61" opacity="1.000000" stroke="none" 
	d="
M225.599319,200.544312 
	C226.194061,202.894211 226.364014,205.379333 226.696930,207.842407 
	C226.943695,209.668076 227.912064,211.032364 229.968735,210.837723 
	C231.845337,210.660095 232.969315,209.485626 233.072266,207.551773 
	C233.178192,205.561890 233.188248,203.566925 233.343979,201.113220 
	C238.016388,204.601135 238.714447,209.290909 235.282547,212.979294 
	C232.036453,216.467926 226.567841,216.471573 223.395844,212.987167 
	C219.850983,209.093170 220.501053,204.761826 225.599319,200.544312 
z"/>
<path fill="#0DBC61" opacity="1.000000" stroke="none" 
	d="
M279.599121,201.015594 
	C279.992035,202.838409 280.012024,204.808838 280.141907,206.771973 
	C280.284912,208.933640 281.153320,210.842087 283.565308,210.776093 
	C285.799011,210.714966 287.043854,209.158783 287.053345,206.806747 
	C287.061279,204.835892 287.098328,202.865128 287.203522,200.458618 
	C291.274384,201.939087 292.807465,205.179398 291.951660,209.404144 
	C291.257111,212.832840 288.891602,214.837158 285.479584,215.457169 
	C281.984528,216.092224 279.193176,214.658218 277.392792,211.785614 
	C274.903961,207.814621 275.801208,204.199234 279.599121,201.015594 
z"/>
<path fill="#0DBC61" opacity="1.000000" stroke="none" 
	d="
M233.304520,185.293762 
	C233.367859,185.287537 233.527466,185.074387 233.659851,185.068634 
	C233.689285,185.201157 233.594681,185.344940 233.383881,185.460083 
	C233.259308,185.425949 233.241180,185.299973 233.304520,185.293762 
z"/>
<path fill="#1A1C1B" opacity="1.000000" stroke="none" 
	d="
M236.606842,152.286438 
	C236.438431,152.154312 236.413483,151.924881 236.388535,151.695450 
	C236.509140,151.860016 236.629730,152.024582 236.606842,152.286438 
z"/>
<path fill="#F7F7F7" opacity="1.000000" stroke="none" 
	d="
M96.401672,317.458008 
	C100.751022,317.158356 102.577103,319.619537 102.884705,323.059143 
	C103.275391,327.427795 104.323830,332.258362 100.211792,335.538391 
	C98.085594,337.234406 95.470154,336.805115 93.524147,334.643555 
	C89.706055,330.402496 91.150612,320.762360 96.401672,317.458008 
z"/>
<path fill="#F7F7F7" opacity="1.000000" stroke="none" 
	d="
M194.057022,325.330261 
	C194.539307,321.715088 195.197449,318.650360 198.931641,317.625977 
	C201.616806,316.889374 203.857315,317.579681 205.502762,319.817474 
	C207.703278,322.810181 207.591888,331.130341 205.344254,334.078308 
	C203.485947,336.515686 200.850098,337.125000 198.251801,335.981201 
	C193.768082,334.007446 194.114716,329.717438 194.057022,325.330261 
z"/>
<path fill="#ECECEC" opacity="1.000000" stroke="none" 
	d="
M404.287109,323.845886 
	C400.895111,323.911957 401.684143,321.917969 402.150940,320.454132 
	C402.866974,318.208588 404.485291,316.901245 406.982483,316.954681 
	C410.215698,317.023834 411.977692,318.938385 412.107513,321.894806 
	C412.269196,325.576569 409.211243,323.228760 407.697296,323.788910 
	C406.823151,324.112305 405.731384,323.847412 404.287109,323.845886 
z"/>
<path fill="#ECECEC" opacity="1.000000" stroke="none" 
	d="
M321.800537,322.276001 
	C322.472321,318.018005 324.745758,316.275665 328.514191,317.173523 
	C331.078522,317.784546 332.388397,319.964142 332.138031,322.456268 
	C331.874359,325.080963 329.445374,323.848724 328.140961,323.736908 
	C326.025787,323.555511 323.531250,325.119904 321.800537,322.276001 
z"/>
<path fill="#ECECEC" opacity="1.000000" stroke="none" 
	d="
M246.042267,368.275818 
	C247.367584,368.832611 248.890503,369.393127 247.622467,370.633026 
	C247.051804,371.190948 245.033585,371.194763 244.463867,370.638763 
	C243.193039,369.398651 244.735565,368.845642 246.042267,368.275818 
z"/>
<path fill="#ECECEC" opacity="1.000000" stroke="none" 
	d="
M297.191284,372.074951 
	C297.561890,369.868378 298.281891,368.382996 300.478546,368.848572 
	C302.643585,369.307465 302.630066,371.214386 302.558350,372.828613 
	C302.493958,374.276337 302.263245,375.983673 300.240967,376.116211 
	C297.658356,376.285522 297.396027,374.366882 297.191284,372.074951 
z"/>
<path fill="#FDFDFD" opacity="1.000000" stroke="none" 
	d="
M171.027267,368.857574 
	C173.990707,369.111938 174.035095,370.989166 173.983246,372.892609 
	C173.939407,374.501953 173.553436,375.995636 171.591019,376.070465 
	C169.294022,376.158020 168.929657,374.489166 168.912750,372.693665 
	C168.898651,371.196167 168.801712,369.619965 171.027267,368.857574 
z"/>
<path fill="#ECECEC" opacity="1.000000" stroke="none" 
	d="
M332.428101,370.939209 
	C331.088623,370.689240 329.503998,371.767334 329.218231,370.056488 
	C329.033661,368.951660 330.191528,368.218811 331.186035,368.300018 
	C332.630402,368.417969 334.010193,368.960999 332.428101,370.939209 
z"/>
</svg>