<svg version="1.2" xmlns="http://www.w3.org/2000/svg" viewBox="0 0 350 350" width="350" height="350"><style>.a{fill:#fff}</style><path class="a" d="m175 171.2c38.9 0 70.5-38.3 70.5-85.6 0-47.3-10.4-85.6-70.5-85.6-60.1 0-70.5 38.3-70.5 85.6 0 47.3 31.6 85.6 70.5 85.6z"/><path  d="m41.9 301.9c0-2.9 0-0.9 0 0z"/><path  d="m308.1 304.1c0-0.8 0-5.5 0 0z"/><path class="a" d="m307.9 298.4c-1.3-82.3-12-105.8-94.3-120.7 0 0-11.6 14.8-38.6 14.8-27 0-38.6-14.8-38.6-14.8-81.4 14.7-92.8 37.8-94.3 118-0.1 6.6-0.2 6.9-0.2 6.2 0 1.4 0 4 0 8.6 0 0 19.6 39.5 133.1 39.5 113.5 0 133.1-39.5 133.1-39.5 0-2.9 0-5 0-6.4 0 0.5-0.1-0.4-0.2-5.7z"/></svg>